<svg width="620" height="140" xmlns="http://www.w3.org/2000/svg">
  <text x="310" y="24" text-anchor="middle" font-size="15" font-weight="bold" fill="#333">完全初始化的数组 int scores[5] = {85, 92, 78, 90, 88}</text>

  <rect x="40" y="42" width="100" height="60" rx="6" fill="#E8F5E9" stroke="#2E7D32" stroke-width="2"/>
  <text x="90" y="66" text-anchor="middle" font-size="13" font-weight="bold" fill="#2E7D32">[0]</text>
  <text x="90" y="88" text-anchor="middle" font-size="17" font-weight="bold" fill="#333">85</text>

  <rect x="148" y="42" width="100" height="60" rx="6" fill="#E8F5E9" stroke="#2E7D32" stroke-width="2"/>
  <text x="198" y="66" text-anchor="middle" font-size="13" font-weight="bold" fill="#2E7D32">[1]</text>
  <text x="198" y="88" text-anchor="middle" font-size="17" font-weight="bold" fill="#333">92</text>

  <rect x="256" y="42" width="100" height="60" rx="6" fill="#E8F5E9" stroke="#2E7D32" stroke-width="2"/>
  <text x="306" y="66" text-anchor="middle" font-size="13" font-weight="bold" fill="#2E7D32">[2]</text>
  <text x="306" y="88" text-anchor="middle" font-size="17" font-weight="bold" fill="#333">78</text>

  <rect x="364" y="42" width="100" height="60" rx="6" fill="#E8F5E9" stroke="#2E7D32" stroke-width="2"/>
  <text x="414" y="66" text-anchor="middle" font-size="13" font-weight="bold" fill="#2E7D32">[3]</text>
  <text x="414" y="88" text-anchor="middle" font-size="17" font-weight="bold" fill="#333">90</text>

  <rect x="472" y="42" width="100" height="60" rx="6" fill="#E8F5E9" stroke="#2E7D32" stroke-width="2"/>
  <text x="522" y="66" text-anchor="middle" font-size="13" font-weight="bold" fill="#2E7D32">[4]</text>
  <text x="522" y="88" text-anchor="middle" font-size="17" font-weight="bold" fill="#333">88</text>

  <line x1="140" y1="72" x2="148" y2="72" stroke="#999" stroke-width="1"/>
  <line x1="248" y1="72" x2="256" y2="72" stroke="#999" stroke-width="1"/>
  <line x1="356" y1="72" x2="364" y2="72" stroke="#999" stroke-width="1"/>
  <line x1="464" y1="72" x2="472" y2="72" stroke="#999" stroke-width="1"/>

  <text x="310" y="125" text-anchor="middle" font-size="12" fill="#666">5 个 int 大小的连续内存空间，均已赋予初始值</text>
</svg>
