<svg xmlns="http://www.w3.org/2000/svg" width="360" height="210">
  <text x="180" y="22" text-anchor="middle" font-size="14" font-weight="bold" fill="#333">my_project/ 目录结构
  </text>
  <!-- 根目录 -->
    <rect x="30" y="38" width="22" height="16" rx="2" fill="#FFC107" stroke="#F57F17" stroke-width="1.5"/>
    <text x="58" y="52" text-anchor="start" font-size="13" font-weight="bold" fill="#333">my_project/
    </text>
    <!-- 竖线 -->
      <line x1="55" y1="56" x2="55" y2="180" stroke="#BBB" stroke-width="1.5"/>
      <!-- include/ 分支 -->
        <line x1="55" y1="70" x2="90" y2="70" stroke="#BBB" stroke-width="1.5"/>
        <line x1="90" y1="70" x2="90" y2="108" stroke="#BBB" stroke-width="1.5"/>
        <rect x="78" y="74" width="22" height="16" rx="2" fill="#FFC107" stroke="#F57F17" stroke-width="1.5"/>
        <text x="106" y="88" text-anchor="start" font-size="13" font-weight="bold" fill="#333">include/
        </text>
        <line x1="90" y1="100" x2="110" y2="100" stroke="#BBB" stroke-width="1.5"/>
        <rect x="115" y="92" width="120" height="16" rx="2" fill="#E3F2FD" stroke="#1565C0" stroke-width="1"/>
        <text x="172" y="103" text-anchor="middle" font-size="11" fill="#333">mathutils.h
        </text>
        <!-- src/ 分支 -->
          <line x1="55" y1="124" x2="90" y2="124" stroke="#BBB" stroke-width="1.5"/>
          <line x1="90" y1="124" x2="90" y2="172" stroke="#BBB" stroke-width="1.5"/>
          <rect x="78" y="128" width="22" height="16" rx="2" fill="#FFC107" stroke="#F57F17" stroke-width="1.5"/>
          <text x="106" y="142" text-anchor="start" font-size="13" font-weight="bold" fill="#333">src/
          </text>
          <line x1="90" y1="155" x2="110" y2="155" stroke="#BBB" stroke-width="1.5"/>
          <rect x="112" y="145" width="120" height="16" rx="2" fill="#E3F2FD" stroke="#1565C0" stroke-width="1"/>
          <text x="172" y="155" text-anchor="middle" font-size="11" fill="#333">main.c
          </text>
          <line x1="90" y1="170" x2="110" y2="170" stroke="#BBB" stroke-width="1.5"/>
          <rect x="112" y="165" width="120" height="16" rx="2" fill="#E3F2FD" stroke="#1565C0" stroke-width="1"/>
          <text x="172" y="177" text-anchor="middle" font-size="11" fill="#333">mathutils.c
          </text>
          <!-- 图例 -->
            <rect x="230" y="186" width="16" height="12" rx="2" fill="#FFC107" stroke="#F57F17" stroke-width="1"/>
            <text x="252" y="196" text-anchor="start" font-size="10" fill="#666">文件夹
            </text>
            <rect x="290" y="186" width="16" height="12" rx="2" fill="#E3F2FD" stroke="#1565C0" stroke-width="1"/>
            <text x="312" y="196" text-anchor="start" font-size="10" fill="#666">文件
            </text>
          </svg>