<svg width="360" height="240" xmlns="http://www.w3.org/2000/svg">
  <text x="180" y="22" text-anchor="middle" font-size="14" font-weight="bold" fill="#333">myproj/ 目录结构（CMake 版）</text>

  <rect x="30" y="38" width="22" height="16" rx="2" fill="#FFC107" stroke="#F57F17" stroke-width="1.5"/>
  <text x="58" y="52" text-anchor="start" font-size="13" font-weight="bold" fill="#333">myproj/</text>

  <line x1="55" y1="56" x2="55" y2="210" stroke="#BBB" stroke-width="1.5"/>

  <!-- include/ -->
  <line x1="55" y1="70" x2="90" y2="70" stroke="#BBB" stroke-width="1.5"/>
  <line x1="90" y1="70" x2="90" y2="108" stroke="#BBB" stroke-width="1.5"/>
  <rect x="78" y="74" width="22" height="16" rx="2" fill="#FFC107" stroke="#F57F17" stroke-width="1.5"/>
  <text x="106" y="88" text-anchor="start" font-size="13" font-weight="bold" fill="#333">include/</text>
  <line x1="90" y1="92" x2="110" y2="92" stroke="#BBB" stroke-width="1.5"/>
  <rect x="112" y="84" width="120" height="16" rx="2" fill="#E3F2FD" stroke="#1565C0" stroke-width="1"/>
  <text x="172" y="96" text-anchor="middle" font-size="11" fill="#333">strtools.h</text>

  <!-- src/ -->
  <line x1="55" y1="124" x2="90" y2="124" stroke="#BBB" stroke-width="1.5"/>
  <line x1="90" y1="124" x2="90" y2="172" stroke="#BBB" stroke-width="1.5"/>
  <rect x="78" y="128" width="22" height="16" rx="2" fill="#FFC107" stroke="#F57F17" stroke-width="1.5"/>
  <text x="106" y="142" text-anchor="start" font-size="13" font-weight="bold" fill="#333">src/</text>
  <line x1="90" y1="146" x2="110" y2="146" stroke="#BBB" stroke-width="1.5"/>
  <rect x="112" y="138" width="120" height="16" rx="2" fill="#E3F2FD" stroke="#1565C0" stroke-width="1"/>
  <text x="172" y="150" text-anchor="middle" font-size="11" fill="#333">main.c</text>
  <line x1="90" y1="164" x2="110" y2="164" stroke="#BBB" stroke-width="1.5"/>
  <rect x="112" y="156" width="120" height="16" rx="2" fill="#E3F2FD" stroke="#1565C0" stroke-width="1"/>
  <text x="172" y="168" text-anchor="middle" font-size="11" fill="#333">strtools.c</text>

  <!-- CMakeLists.txt -->
  <line x1="55" y1="188" x2="90" y2="188" stroke="#BBB" stroke-width="1.5"/>
  <rect x="78" y="180" width="120" height="16" rx="2" fill="#E8F5E9" stroke="#2E7D32" stroke-width="1"/>
  <text x="138" y="192" text-anchor="middle" font-size="11" fill="#333">CMakeLists.txt</text>

  <rect x="230" y="216" width="16" height="12" rx="2" fill="#E8F5E9" stroke="#2E7D32" stroke-width="1"/>
  <text x="252" y="226" text-anchor="start" font-size="10" fill="#666">CMake 配置</text>
</svg>
